<?xml version="1.0" encoding="UTF-8"?>
<svg version="1.1" xmlns="http://www.w3.org/2000/svg" width="64" height="75">
<path d="M0 0 C5.24239333 4.85880358 8.12194235 8.03237258 8.5625 15.375 C10.3878125 15.2821875 10.3878125 15.2821875 12.25 15.1875 C16.14972274 15.1736712 18.40043424 15.97949564 21.5625 18.375 C23.18092198 19.99342198 22.71430148 21.77761939 22.73950195 24.01489258 C22.75875481 25.49696953 22.75875481 25.49696953 22.77839661 27.00898743 C22.78578354 28.08496689 22.79317047 29.16094635 22.80078125 30.26953125 C22.808853 31.36843185 22.81692474 32.46733246 22.82524109 33.59953308 C22.83910139 35.93067843 22.84981479 38.26184424 22.85766602 40.59301758 C22.87487709 44.16201181 22.91874675 47.73007971 22.96289062 51.29882812 C22.97301707 53.559889 22.98153332 55.82095777 22.98828125 58.08203125 C23.00578934 59.15193802 23.02329742 60.22184479 23.04133606 61.32417297 C23.03841049 62.32168076 23.03548492 63.31918854 23.0324707 64.34692383 C23.03833694 65.22326981 23.04420319 66.09961578 23.05024719 67.0025177 C22.38160151 70.25491989 21.21004926 71.41123048 18.5625 73.375 C15.98242188 73.88293457 15.98242188 73.88293457 13.03125 73.89257812 C11.92330078 73.90518677 10.81535156 73.91779541 9.67382812 73.93078613 C8.48208984 73.92268921 7.29035156 73.91459229 6.0625 73.90625 C4.22075195 73.91199036 4.22075195 73.91199036 2.34179688 73.91784668 C-0.25391459 73.92056842 -2.84965336 73.91318911 -5.4453125 73.89648438 C-9.42249599 73.87508075 -13.39787282 73.89627963 -17.375 73.921875 C-19.89583733 73.91923177 -22.41667353 73.91410691 -24.9375 73.90625 C-26.72510742 73.91839539 -26.72510742 73.91839539 -28.54882812 73.93078613 C-29.65677734 73.91817749 -30.76472656 73.90556885 -31.90625 73.89257812 C-32.88013672 73.88939575 -33.85402344 73.88621338 -34.85742188 73.88293457 C-38.23221124 73.21854686 -39.40494916 72.11969067 -41.4375 69.375 C-41.9521637 67.02270508 -41.9521637 67.02270508 -41.97094727 64.39453125 C-41.9867836 63.40670654 -42.00261993 62.41888184 -42.01893616 61.40112305 C-42.01397629 60.34062744 -42.00901642 59.28013184 -42.00390625 58.1875 C-42.01010483 57.09284424 -42.01630341 55.99818848 -42.02268982 54.87036133 C-42.02979034 52.55713796 -42.02661001 50.2438635 -42.01391602 47.93066406 C-42.00004977 44.38771753 -42.03412155 40.84741094 -42.07226562 37.3046875 C-42.07321679 35.05729102 -42.07135814 32.80989123 -42.06640625 30.5625 C-42.07966446 29.50200439 -42.09292267 28.44150879 -42.10658264 27.34887695 C-42.01360844 20.02091118 -42.01360844 20.02091118 -39.05175781 16.70019531 C-36.27318944 15.29170922 -34.70781889 14.94095111 -31.625 15.125 C-30.83480469 15.16109375 -30.04460938 15.1971875 -29.23046875 15.234375 C-28.63878906 15.28078125 -28.04710937 15.3271875 -27.4375 15.375 C-27.355 14.34375 -27.2725 13.3125 -27.1875 12.25 C-26.08064903 6.53126999 -23.98118507 3.59708401 -19.4375 0 C-13.4000579 -3.10347996 -6.0191421 -2.84541263 0 0 Z M-18.4375 10.375 C-18.7675 12.025 -19.0975 13.675 -19.4375 15.375 C-12.8375 15.375 -6.2375 15.375 0.5625 15.375 C0.02688167 10.50281827 0.02688167 10.50281827 -2.5 8.0625 C-8.35783516 4.69736065 -13.82157089 5.19956434 -18.4375 10.375 Z M-26.4375 23.375 C-26.00236181 28.81422743 -25.03846721 32.22003784 -21.4375 36.375 C-17.135856 39.4557783 -12.76434361 41.08415323 -7.44921875 40.75 C-2.73538248 39.87130431 1.01373049 38.17127262 4.17578125 34.50390625 C6.63701497 30.83632135 8.27278864 27.92084728 7.5625 23.375 C5.5825 23.375 3.6025 23.375 1.5625 23.375 C1.170625 24.468125 0.77875 25.56125 0.375 26.6875 C-0.74221186 29.22568177 -1.49558889 30.4296719 -3.5625 32.375 C-7.70746298 33.81672625 -11.24730704 33.6673025 -15.4375 32.375 C-18.35532341 29.67601335 -19.85319845 27.31903545 -20.4375 23.375 C-22.4175 23.375 -24.3975 23.375 -26.4375 23.375 Z " fill="#FFFFFF" transform="translate(41.4375,1.625)"/>
</svg>
