<?xml version="1.0" encoding="UTF-8"?>
<svg version="1.1" xmlns="http://www.w3.org/2000/svg" width="302" height="81">
<path d="M0 0 C0.66 0.495 1.32 0.99 2 1.5 C2.33 0.51 2.66 -0.48 3 -1.5 C5.97 -1.5 8.94 -1.5 12 -1.5 C12.04970487 3.21393321 12.085863 7.9277114 12.10986328 12.6418457 C12.11987623 14.24310974 12.1334906 15.84435571 12.15087891 17.44555664 C12.17533565 19.75671876 12.18653029 22.06763762 12.1953125 24.37890625 C12.20563507 25.08648575 12.21595764 25.79406525 12.22659302 26.52308655 C12.22792592 32.52463636 11.55402063 37.55747421 7.75 42.3125 C2.80941697 46.24250923 -1.77110289 47.03697389 -8 46.5 C-12.66986412 45.45738493 -15.35538068 44.2574277 -18.5 40.5625 C-20 37.5 -20 37.5 -20 33.5 C-16.96586305 33.26660485 -14.02649947 33.13618735 -11 33.5 C-9.64691687 34.81328657 -8.31129922 36.14499081 -7 37.5 C-3.36760187 37.6716367 -3.36760187 37.6716367 0 36.5 C2.23892859 33.67700309 2 32.2208921 2 28.5 C1.34 28.995 0.68 29.49 0 30 C-3.76311038 31.88155519 -6.91165032 32.19044236 -11 31.5 C-14.89240172 30.13030794 -17.48499196 28.23817819 -19.875 24.8125 C-22.15132021 18.1100016 -22.82423377 12.17546163 -20 5.5 C-14.52283786 -0.98611306 -8.05358642 -4.02679321 0 0 Z M-10.3125 8.1875 C-12.21685299 10.79716891 -12.84293067 12.28007864 -13 15.5 C-12.03942351 18.8620177 -10.9381809 21.50623439 -8 23.5 C-4.39243301 24.03729721 -2.69805225 23.9905232 0.3125 21.875 C2.38404071 18.95949827 2.85446009 17.0657278 3 13.5 C1.95102418 9.65375534 1.39462539 8.76308359 -2 6.5 C-5.63127267 6.03643328 -7.31967869 6.00354931 -10.3125 8.1875 Z " fill="#FFFFFF" transform="translate(126,30.5)"/>
<path d="M0 0 C2.70184678 2.4483992 4.8922517 5.03194627 7 8 C7.66 8.9075 8.32 9.815 9 10.75 C10 13 10 13 9.9140625 15 C9 17 9 17 6.5859375 18.265625 C-3.26486192 21.28557811 -14.05741173 23.28765267 -24 19.5 C-28.66349356 16.97799684 -32.37028999 13.62438169 -35 9 C-35.83148246 5.78135821 -35.86421799 3.21170375 -35 0 C-32.60392582 -3.4125905 -30.67061649 -4.70492875 -26.875 -6.375 C-16.76468786 -8.00569551 -8.51593976 -5.63679893 0 0 Z " fill="#F7FF3A" transform="translate(35,12)"/>
<path d="M0 0 C-0.16757812 0.69996094 -0.33515625 1.39992188 -0.5078125 2.12109375 C-2.48574827 13.6904482 1.26419334 24.85405261 7.75 34.375 C11.11343116 38.58369135 15.39235831 41.29685021 20 44 C16.02011757 48.23515186 11.82635855 49.12102243 6.125 49.375 C0.11673046 49.22163576 -4.20648883 47.49605396 -8.6875 43.4921875 C-15.44828656 36.22434195 -18.44891916 27.15334854 -18.26953125 17.3359375 C-17.69359392 12.34448065 -15.73974488 8.61022665 -12.05859375 5.203125 C-8.1370022 2.16984977 -5.13063134 0 0 0 Z " fill="#F7FF3A" transform="translate(57,30)"/>
<path d="M0 0 C6.28314264 3.20568502 10.4041064 8.23378443 13.875 14.25 C15.75238668 20.50795559 16.10564516 26.97401252 13.625 33.125 C12 36 12 36 10 37 C6.81956877 37.60579642 4.79873905 37.48455794 2.00390625 35.7890625 C-5.54871451 29.70698983 -9.22299225 21.79037553 -10.78515625 12.328125 C-11.16531145 8.20862499 -10.97471132 4.67866949 -8.875 1.0625 C-5.79508546 -0.68278491 -3.46867062 -0.41153719 0 0 Z " fill="#F7FF3A" transform="translate(73,30)"/>
<path d="M0 0 C2.97 0 5.94 0 9 0 C11.83346785 6.27410738 14.47692443 12.59532844 17 19 C17.20681396 18.45996338 17.41362793 17.91992676 17.62670898 17.36352539 C18.56088784 14.92878405 19.49913747 12.49563181 20.4375 10.0625 C20.76298828 9.21236328 21.08847656 8.36222656 21.42382812 7.48632812 C21.73642578 6.67744141 22.04902344 5.86855469 22.37109375 5.03515625 C22.65911865 4.2862915 22.94714355 3.53742676 23.24389648 2.76586914 C24 1 24 1 25 0 C26.51928038 -0.07179964 28.04167482 -0.08392007 29.5625 -0.0625 C30.38878906 -0.05347656 31.21507812 -0.04445313 32.06640625 -0.03515625 C32.70449219 -0.02355469 33.34257812 -0.01195313 34 0 C33.3057827 5.07357141 31.22952846 9.50616549 29.21875 14.16796875 C28.84520386 15.04399246 28.47165771 15.92001617 28.08679199 16.82258606 C26.89565308 19.61282118 25.69784641 22.40013882 24.5 25.1875 C23.69358656 27.07468873 22.88759223 28.96205661 22.08203125 30.84960938 C20.60989389 34.29427628 19.13687705 37.73855321 17.65820312 41.18041992 C17.36143677 41.87149338 17.06467041 42.56256683 16.75891113 43.27458191 C16.20601412 44.53161777 15.61413911 45.77172177 15 47 C12.03 47 9.06 47 6 47 C6.73635615 42.48581667 8.38899345 38.93846738 10.453125 34.890625 C11.2954147 30.43852231 9.65687473 27.12384954 8 23 C7.50282471 21.73833008 7.50282471 21.73833008 6.99560547 20.45117188 C5.59037747 16.93380757 4.14719926 13.43273307 2.69726562 9.93359375 C2.34986328 9.08152344 2.00246094 8.22945312 1.64453125 7.3515625 C1.32846924 6.58666504 1.01240723 5.82176758 0.68676758 5.03369141 C0 3 0 3 0 0 Z " fill="#FFFFFF" transform="translate(268,29)"/>
<path d="M0 0 C3.80332088 2.59317333 6.74257355 5.47267539 8.5625 9.8125 C9.12557622 16.0063384 8.8246966 20.34054612 5.75 25.875 C1.9087527 29.94714195 -1.82330296 31.99870399 -7.4375 32.1875 C-12.42899108 32.09807589 -16.31868928 31.02537315 -20.25 27.875 C-23.77081804 23.4814158 -24.93267517 18.68027881 -24.625 13.11328125 C-23.83496483 8.39775885 -22.31937287 4.53330106 -18.51953125 1.48828125 C-12.4846239 -1.94474988 -6.50383988 -2.25132919 0 0 Z M-13.625 8.9375 C-15.66549207 12.62608182 -15.84455887 14.71308793 -15.25 18.875 C-13.79366876 21.90438694 -13.79366876 21.90438694 -11.25 23.875 C-8.25 24.625 -8.25 24.625 -5.25 23.875 C-2.33689962 21.82795649 -1.41570456 20.38316065 -0.3125 17 C-0.23563034 13.15651695 -1.22236715 11.10419306 -3.25 7.875 C-7.23070822 5.88464589 -10.26387487 6.01862817 -13.625 8.9375 Z " fill="#FFFFFF" transform="translate(189.25,30.125)"/>
<path d="M0 0 C4.73908223 3.04655286 6.04035126 5.20217742 7.625 10.6875 C4.325 10.6875 1.025 10.6875 -2.375 10.6875 C-2.705 9.6975 -3.035 8.7075 -3.375 7.6875 C-4.65375 7.625625 -5.9325 7.56375 -7.25 7.5 C-7.96929687 7.46519531 -8.68859375 7.43039063 -9.4296875 7.39453125 C-10.39261719 7.53955078 -10.39261719 7.53955078 -11.375 7.6875 C-13.44020632 10.78530948 -13.66977024 11.6415481 -13.6875 15.1875 C-13.70425781 15.9609375 -13.72101563 16.734375 -13.73828125 17.53125 C-13.28400481 20.2276005 -12.58016915 21.10159068 -10.375 22.6875 C-6.74964024 22.9378577 -6.74964024 22.9378577 -3.375 22.6875 C-3.045 21.6975 -2.715 20.7075 -2.375 19.6875 C0.925 19.6875 4.225 19.6875 7.625 19.6875 C5.75978767 24.79229164 4.32901937 27.62988741 -0.375 30.6875 C-5.5814736 32.4229912 -10.52434089 32.35094383 -15.6875 30.5 C-19.20270834 28.1292781 -21.48140381 25.47469238 -23.375 21.6875 C-24.41280601 9.3699336 -24.41280601 9.3699336 -21.625 5.0625 C-15.4703266 -1.4340997 -8.47604563 -3.29623997 0 0 Z " fill="#FFFFFF" transform="translate(224.375,30.3125)"/>
<path d="M0 0 C0 2.64 0 5.28 0 8 C-0.639375 8.103125 -1.27875 8.20625 -1.9375 8.3125 C-2.618125 8.539375 -3.29875 8.76625 -4 9 C-4.33 9.99 -4.66 10.98 -5 12 C-3.35 12 -1.7 12 0 12 C0 14.64 0 17.28 0 20 C-1.65 20 -3.3 20 -5 20 C-5 27.92 -5 35.84 -5 44 C-7.97 44 -10.94 44 -14 44 C-14 36.08 -14 28.16 -14 20 C-15.32 20 -16.64 20 -18 20 C-18 17.36 -18 14.72 -18 12 C-16.68 12 -15.36 12 -14 12 C-14.103125 11.113125 -14.20625 10.22625 -14.3125 9.3125 C-13.90194499 4.96061694 -12.28831975 3.74026646 -9 1 C-6.04335481 -0.4783226 -3.25770263 -0.06032783 0 0 Z " fill="#FFFFFF" transform="translate(267,17)"/>
<path d="M0 0 C2.05078125 0.03255208 4.1015625 0.06510417 6.15234375 0.09765625 C6.48234375 1.08765625 6.81234375 2.07765625 7.15234375 3.09765625 C7.89484375 2.60265625 8.63734375 2.10765625 9.40234375 1.59765625 C12.15234375 0.09765625 12.15234375 0.09765625 16.15234375 0.09765625 C16.15234375 3.06765625 16.15234375 6.03765625 16.15234375 9.09765625 C15.03859375 9.34515625 13.92484375 9.59265625 12.77734375 9.84765625 C9.23866912 10.69792602 9.23866912 10.69792602 7.96484375 12.62890625 C6.74852513 16.3246436 6.68131778 19.97905874 6.52734375 23.84765625 C6.46933594 25.03681641 6.46933594 25.03681641 6.41015625 26.25 C6.31623575 28.19885041 6.23321553 30.14822076 6.15234375 32.09765625 C3.18234375 32.09765625 0.21234375 32.09765625 -2.84765625 32.09765625 C-2.87231129 27.70109452 -2.89049467 23.30456905 -2.90258789 18.90795898 C-2.90762746 17.41120707 -2.91445912 15.91446009 -2.9230957 14.41772461 C-2.93517784 12.27065818 -2.94088816 10.12365663 -2.9453125 7.9765625 C-2.95054932 6.68306885 -2.95578613 5.3895752 -2.96118164 4.05688477 C-2.8112469 0.14858599 -2.8112469 0.14858599 0 0 Z " fill="#FFFFFF" transform="translate(146.84765625,28.90234375)"/>
<path d="M0 0 C2.97015606 2.29947566 3.00295837 4.02218775 3.5 7.75 C3.25808696 12.75573913 1.40454368 16.3634984 -2 20 C-5.19466736 22.29235673 -8.50334434 24.20753963 -12 26 C-15.47380092 20.78929863 -15.52253584 16.08991774 -15 10 C-12.39282978 2.59014779 -8.03171178 -1.18988323 0 0 Z " fill="#F7FF3A" transform="translate(63,0)"/>
<path d="M0 0 C2.64 0 5.28 0 8 0 C8 10.56 8 21.12 8 32 C5.03 32 2.06 32 -1 32 C-1.02465504 27.60343827 -1.04283842 23.2069128 -1.05493164 18.81030273 C-1.05997121 17.31355082 -1.06680287 15.81680384 -1.07543945 14.32006836 C-1.08752159 12.17300193 -1.09323191 10.02600038 -1.09765625 7.87890625 C-1.10289307 6.5854126 -1.10812988 5.29191895 -1.11352539 3.95922852 C-1 1 -1 1 0 0 Z " fill="#FFFFFF" transform="translate(237,29)"/>
<path d="M0 0 C0.33 0 0.66 0 1 0 C1.32871094 1.45019531 1.32871094 1.45019531 1.6640625 2.9296875 C3.42716736 10.3037929 5.37393518 16.56090277 9.6328125 22.94921875 C10.93869454 24.90804181 11.99273009 26.87514014 13 29 C-2.97090027 25.8372234 -2.97090027 25.8372234 -9 23 C-10.75948697 17.72153909 -7.30126319 12.8277823 -5 8 C-3.45520463 5.19632443 -1.82605187 2.63763048 0 0 Z " fill="#F7FF3A" transform="translate(32,50)"/>
<path d="M0 0 C3 0.25 3 0.25 5 2.25 C4.625 5.875 4.625 5.875 4 9.25 C1.1875 9.875 1.1875 9.875 -2 10.25 C-2.99 9.59 -3.98 8.93 -5 8.25 C-5.3125 5.25 -5.3125 5.25 -5 2.25 C-3 0.25 -3 0.25 0 0 Z " fill="#FFFFFF" transform="translate(241,16.75)"/>
</svg>
